<svg width="64" height="64" fill="none" xmlns="http://www.w3.org/2000/svg"><g clip-path="url(#clip0_32_850)" fill="#FF5E15"><path d="M1.776 32.087C1.95 47.045 12.93 59.655 27.71 61.753c16.482 2.322 31.763-9.09 34.038-25.495 1.2-8.59-.975-16.306-6.327-23.123-.125-.175-.375-.325-.375-.475-.025-.474.05-.949.1-1.423.45.075 1.05-.025 1.3.224.675.675 1.226 1.474 1.776 2.248C71.428 32.662 60.774 58.956 38.115 63.4 20.558 66.847 3.327 54.96.45 37.406-2.4 20.101 8.63 3.996 25.835.65c9.93-1.948 18.883.5 26.76 6.892.3.225.676.475.776.774.125.325.125.874-.1 1.124-.2.225-.725.225-1.075.175-.3-.05-.55-.375-.8-.575C33.512-5.893 6.277 4.02 2.3 26.893c-.3 1.723-.35 3.471-.525 5.194z"/><path d="M31.913 6.692c-3.602.025-7.028.8-10.304 2.272-.226.1-.45.3-.676.3-.475-.05-.95-.2-1.425-.3.225-.474.325-1.223.65-1.348 2.2-.824 4.427-1.823 6.728-2.222 14.856-2.672 28.46 6.442 31.737 21.15 2.926 13.26-5.227 27.293-18.207 31.313-.65.2-1.376.5-1.676-.4-.325-.973.45-1.173 1.15-1.423 11.255-3.895 18.133-14.283 17.332-26.12-.775-11.51-10.203-21.449-21.708-22.897-1.2-.15-2.4-.225-3.601-.325zm.574 50.566c.75-.05 1.501-.05 2.251-.125.7-.075 1.351 0 1.451.774.1.874-.6 1.024-1.325 1.099-13.856 1.423-26.56-7.616-29.387-21.15-2.3-11.062 1.225-20.202 9.929-27.368.125-.1.25-.275.4-.3.5-.025 1.025 0 1.526 0-.125.5-.1 1.149-.425 1.473-1.351 1.399-3.002 2.547-4.202 4.046-6.178 7.566-7.803 16.13-4.327 25.22 3.502 9.14 10.38 14.508 20.108 16.056 1.3.2 2.651.225 3.976.35 0-.025 0-.05.025-.075z"/><path d="M17.432 31.962c0-.998-.05-1.997 0-2.996.125-2.322 2.026-4.145 4.301-4.17 2.301-.05 4.377 1.848 4.452 4.17a79.842 79.842 0 010 5.993c-.075 2.347-2.076 4.245-4.402 4.245s-4.276-1.848-4.376-4.245c0-.999.025-1.998.025-2.997zm6.877.05c.025-.873.025-1.747 0-2.622v-.25c-.125-1.398-1.05-2.346-2.376-2.396-1.375-.05-2.55.849-2.625 2.272a59.34 59.34 0 000 5.968c.075 1.423 1.25 2.322 2.625 2.272 1.326-.05 2.276-.974 2.376-2.397.05-.949 0-1.898 0-2.847zm12.681.075c0 .924.024 1.823 0 2.747-.076 2.422-2.026 4.37-4.402 4.37-2.326 0-4.302-1.873-4.377-4.245-.05-1.998-.075-3.995 0-5.993.075-2.322 2-4.145 4.302-4.17 2.3-.05 4.326 1.848 4.451 4.17.05 1.049.025 2.098.025 3.121zm-1.926-.075c0-.873.025-1.747 0-2.622v-.25c-.125-1.398-1.05-2.346-2.376-2.396-1.376-.05-2.551.849-2.626 2.272a59.34 59.34 0 000 5.968c.075 1.423 1.25 2.322 2.626 2.272 1.325-.05 2.276-.998 2.376-2.397.05-.949 0-1.898 0-2.847zm-21.509-5.293c-.65 0-1.175.125-1.625-.025-.375-.15-.9-.575-.9-.9 0-.324.525-.873.875-.923.85-.15 1.775-.2 2.6 0 .4.1.926.849.951 1.298.075 3.896.075 7.816 0 11.712 0 .45-.5 1.173-.85 1.248-.75.15-1.026-.524-1.026-1.223v-9.364c-.025-.525-.025-1.074-.025-1.823zm36.54-1.049c-.15.4-.2.624-.3.849-1.801 3.92-3.602 7.816-5.427 11.711-.15.35-.476.7-.826.85-.2.1-.725-.076-.85-.25-.175-.325-.275-.825-.125-1.15 1.85-4.07 3.726-8.14 5.652-12.16.15-.325.75-.6 1.15-.624.226.025.5.524.726.774zm-8.504 5.369c-1.55 0-2.801-1.374-2.826-3.072-.025-1.698 1.35-3.196 2.876-3.196 1.526.025 2.876 1.548 2.826 3.221-.05 1.723-1.325 3.072-2.876 3.047zm-1.2-3.072c.5.525.825.874 1.175 1.224.325-.4.875-.824.875-1.224s-.575-.799-.9-1.198c-.325.324-.675.674-1.15 1.198zm13.13 8.116c0 1.698-1.25 3.096-2.751 3.121-1.55.025-2.826-1.398-2.826-3.171 0-1.748 1.175-3.047 2.75-3.072 1.652-.025 2.852 1.324 2.827 3.122zm-1.45-.1c-.626-.5-1.026-.824-1.426-1.149-.275.45-.775.9-.8 1.349 0 .35.575.724.9 1.073.375-.374.75-.724 1.326-1.273z"/></g><defs><clipPath id="clip0_32_850"><path fill="#fff" d="M0 0h64v64H0z"/></clipPath></defs></svg>