<svg width="63" height="62" fill="none" xmlns="http://www.w3.org/2000/svg"><g clip-path="url(#clip0_32_814)" fill="#FF5E15"><path d="M8.677 42.268H2.802C.37 42.244-.786 40.366.615 38.415c1.253-1.732 1.253-3.073 0-4.805-1.401-1.951-.246-3.78 2.212-3.805h3.54c0-1 .024-1.902 0-2.83-.025-1.268.467-2.243 1.499-3.024.32-.244.54-.853.54-1.293.05-4.829.025-9.658.025-14.512 0-2.536 1.008-3.56 3.54-3.902C17.354 3.512 22.786 2.756 27.85.78c2.58-1 4.72-1.05 7.325-.025 5.014 2 10.398 2.732 15.756 3.464 2.778.39 3.712 1.317 3.712 4.121 0 4.805-.025 9.586.024 14.39 0 .464.344 1.025.689 1.342.958.805 1.376 1.78 1.352 3-.025.878 0 1.756 0 2.756 1.4 0 2.63-.024 3.834 0 2.04.05 3.22 1.927 2.04 3.537-1.425 1.927-1.4 3.439.025 5.341 1.18 1.61-.025 3.512-2.065 3.561-2.138.05-4.252 0-6.39 0-.075.098-.197.195-.222.293-1.672 5.805-5.383 10.122-10.201 13.61a40.896 40.896 0 01-10.594 5.512c-.762.268-1.77.439-2.507.17-7.276-2.511-13.766-6.292-18.264-12.731-1.475-2-2.409-4.39-3.687-6.854zm39.501-18.805V10.39c-4.424-1-8.824-1.78-13.052-3.073-2.581-.78-4.793-.756-7.374.024-4.204 1.293-8.554 2.05-12.905 3.05v13.072h33.331zm-16.567 2.195H10.127c-1.5 0-1.72.22-1.72 1.683 0 2.366.024 4.708-.025 7.074C8.358 35.56 8.825 36 9.98 36c14.33-.024 28.66-.024 42.991 0 1.156 0 1.623-.439 1.598-1.585-.05-2.317 0-4.634-.025-6.952 0-1.634-.172-1.805-1.843-1.805H31.61zM14.773 38.172c.246 2.756 1.13 5.122 2.581 7.268 2.261 3.342 5.31 5.854 8.874 7.683 6.194 3.17 4.35 3.195 10.618-.073 3.786-1.951 6.981-4.659 9.218-8.342 1.205-2 1.967-4.146 2.114-6.536H14.773zm-2.188-14.708V10.635c0-1.61.566-2.268 2.188-2.56 5.432-.928 10.865-1.903 16.051-3.854a2.37 2.37 0 011.426 0c5.039 1.878 10.275 2.878 15.56 3.731 2.138.342 2.605.927 2.605 3.073V23.39h2.016V7.488c0-.854-.59-.976-1.303-1.122C45.769 5.268 40.36 4.39 35.126 2.902c-2.557-.731-4.621-.756-7.178-.024-5.21 1.537-10.594 2.44-15.903 3.463-1.131.22-1.5.61-1.5 1.732.05 3.951.025 7.878.025 11.83v3.56h2.015zm-1.942 14.708c0 .439-.049.805 0 1.146.37 2.78 1.23 5.39 2.754 7.732 4.178 6.463 10.422 10.146 17.476 12.732.517.195 1.23.024 1.77-.171 3.712-1.317 7.178-3.147 10.324-5.512 3.884-2.927 7.03-6.464 8.53-11.171.491-1.512.688-3.098 1.056-4.732H50.44c-.074.342-.173.61-.197.878-.369 3.293-1.672 6.17-3.712 8.732-3.712 4.658-8.677 7.585-14.158 9.683-.566.22-1.401.122-1.991-.122-3.343-1.244-6.465-2.927-9.292-5.122-3.687-2.854-6.612-6.293-7.865-10.878-.27-1.049-.443-2.122-.64-3.22-.663.025-1.229.025-1.942.025zm50.096 1.902c-.615-1.39-1.647-2.731-1.647-4.073 0-1.341 1.057-2.683 1.671-4.098h-4.13c0 1.025.148 2.025-.048 2.952-.172.853-.467 1.95-1.107 2.414-1.056.78-1.032 1.708-1.106 2.805h6.367zm-58.822-.17c.123.048.27.121.394.17h6.268c-.074-1.097-.025-2-1.082-2.78-.663-.488-.958-1.634-1.13-2.512-.197-.927-.05-1.903-.05-2.83H1.795c2.679 2.732 2.826 5.342.122 7.952z"/><path d="M28.194 19.098l7.005-6.952c.222-.22.418-.585.713-.658.492-.122 1.156-.293 1.5-.073.614.39.467 1.048-.05 1.56-.786.781-1.548 1.562-2.335 2.318-1.843 1.829-3.711 3.658-5.555 5.512-.762.78-1.426.854-2.188.049-.565-.586-1.253-1.098-1.671-1.756-.221-.366-.025-1-.025-1.513.492.025 1.057-.122 1.426.098.442.268.713.854 1.18 1.415zm3.245 10.707h-7.743c-.787 0-1.573-.073-1.573-1.073s.786-1.073 1.573-1.073h15.608c.787 0 1.573.048 1.573 1.073 0 1-.786 1.073-1.573 1.073H31.44zm.098 4.171h-4.916c-.737 0-1.377-.244-1.401-1.025-.025-.878.639-1.122 1.426-1.122h9.684c.738 0 1.377.244 1.401 1.025.025.878-.639 1.122-1.425 1.122h-4.769z"/></g><defs><clipPath id="clip0_32_814"><path fill="#fff" d="M0 0h63v62H0z"/></clipPath></defs></svg>