<svg width="89" height="89" fill="none" xmlns="http://www.w3.org/2000/svg"><g clip-path="url(#clip0_32_865)" fill="#fff"><path d="M44.396 70.574c.486-.487.938-.87 1.32-1.286 9.7-9.7 19.4-19.434 29.134-29.1.87-.868 1.287-1.737 1.287-3.024-.07-10.603-.035-21.207-.035-31.81V3.476h-23.05c-1.286 0-2.503-.208-2.538-1.703-.034-1.6 1.217-1.808 2.573-1.808 7.996.035 15.992 0 23.988 0 1.947 0 2.469.522 2.503 2.434 0 5.388-.034 10.777.035 16.166 0 .869.452 1.877 1.043 2.538 2.33 2.503 4.867 4.832 7.162 7.335.59.626 1.043 1.704 1.078 2.573.07 16.41.07 32.784.034 49.193 0 5.006-3.79 8.761-8.83 8.761H8.83C3.79 89 0 85.245 0 80.135c0-16.34-.035-32.68.035-49.02 0-.904.486-2.016 1.147-2.712 2.33-2.503 4.832-4.832 7.162-7.335.556-.591.973-1.565.973-2.399.07-5.32.035-10.673.035-15.992C9.387.487 9.839 0 11.994 0h23.815c1.251 0 2.468.07 2.468 1.703.035 1.739-1.252 1.808-2.538 1.808H13.002c-.035.556-.104 1.043-.104 1.53 0 10.881 0 21.798.035 32.68 0 .66.208 1.53.66 1.981a8566.707 8566.707 0 0030.803 30.872zM6.57 85.141c.869.139 1.599.347 2.294.347 23.745 0 47.49.035 71.2 0 .73 0 1.46-.243 2.051-.347L58.51 61.535c-.312.313-.8.73-1.216 1.147L46.238 73.738c-1.46 1.46-2.19 1.46-3.615 0-3.442-3.442-6.884-6.85-10.291-10.326-.695-.695-1.147-1.599-1.669-2.294-8.274 8.24-16.062 16.027-24.092 24.023zM3.476 35.078c0 15.158 0 30.281.035 45.37 0 .625.278 1.251.348 1.668l23.328-23.328c-7.788-7.787-15.68-15.713-23.71-23.71zm58.198 23.606l23.363 23.363c.556-1.182.8-44.674.278-47.003l-23.64 23.64zM4.52 30.107c1.634 1.669 3.199 3.303 4.729 4.867v-9.56c-1.704 1.703-3.303 3.302-4.729 4.693zm75.233-4.728v9.317c1.495-1.495 3.094-3.025 4.902-4.798-1.32-1.251-2.746-2.607-4.172-3.928a24.93 24.93 0 00-.73-.591z"/><path d="M49.228 38.208c-4.241 2.885-7.092 3.198-10.22.764-3.72-2.885-4.764-6.848-3.93-11.333.73-3.929 3.025-6.57 6.954-7.614 2.33-.626 4.45.035 5.91.974 1.078-.66 1.877-1.53 2.712-1.565 1.46-.035 1.495 1.287 1.495 2.434v12.515c0 1.391.034 2.851 1.53 3.338 1.599.521 3.232-.174 3.893-1.565 1.008-2.085 1.982-4.38 2.12-6.675.453-6.953-5.388-13.558-12.515-14.566-8.83-1.252-16.375 4.241-17.904 13.002-1.356 7.926 4.276 15.714 12.655 17.417a7.985 7.985 0 001.564.174c1.286.035 2.399.418 2.33 1.947-.07 1.426-1.183 1.6-2.4 1.565-7.37-.174-14.462-5.702-16.86-13.142-3.165-9.943 2.433-20.685 12.445-23.78 9.978-3.094 20.581 2.434 23.64 12.377 1.357 4.45.627 8.726-1.494 12.76-1.286 2.433-3.442 3.858-6.223 4.136-2.642.278-4.415-1.078-5.702-3.163zm-.104-8.066c-.104-.07-.209-.174-.313-.243-.243-1.078-.382-2.156-.73-3.164-.591-1.773-1.738-3.025-3.616-3.338-1.947-.313-3.476.557-4.658 2.052-2.225 2.78-1.808 7.926.8 10.325 1.912 1.773 4.588 1.808 6.083-.313 1.078-1.564 1.634-3.546 2.434-5.319zM46.447 2.155c-.696.452-1.321 1.183-2.051 1.287-1.043.139-1.843-.696-1.565-1.738.174-.661 1.043-1.53 1.6-1.53.66 0 1.355.8 2.05 1.251-.034.209-.034.452-.034.73z"/></g><defs><clipPath id="clip0_32_865"><path fill="#fff" d="M0 0h89v89H0z"/></clipPath></defs></svg>