<svg width="22" height="11" fill="none" xmlns="http://www.w3.org/2000/svg"><path d="M7.11.773c.194-.362.488-.538.849-.605a12.15 12.15 0 013.797-.037c.614.089.84.354.84.93 0 .847-.033 1.695-.041 2.542 0 .354-.017.715.058 1.062.042.206.219.45.412.538.118.059.437-.088.596-.214.874-.715 1.42-1.629 1.975-2.536.277-.45.504-.928.722-1.408.168-.36.404-.53.883-.53 1.134.014 2.268-.015 3.402-.03.807-.015 1.126.317.756.929-.47.804-1.05 1.555-1.63 2.307-.462.597-1 1.158-1.462 1.747-.428.539-.378.826.135 1.305.79.73 1.613 1.43 2.378 2.182.277.273.487.627.638.973.177.406-.067.73-.563.752-1.184.052-2.378.096-3.57.067-.614-.015-1.135-.34-1.555-.73-.445-.406-.857-.848-1.31-1.246-.286-.258-.588-.612-1.059-.494-.47.125-.639.523-.714.922-.05.25-.059.508-.084.766-.042.531-.269.737-.866.737-1.041-.007-2.1.096-3.116-.228-1.462-.442-2.73-1.18-3.74-2.234C2.835 6.147 1.365 3.766.112 1.274-.14.773.029.537.676.522A190 190 0 013.573.485c.496 0 .815.207 1.042.612A104.94 104.94 0 006.48 4.304c.168.272.429.516.698.73.537.434 1.016.317 1.117-.31.118-.789.118-1.585.151-2.381.009-.118-.033-.243-.05-.369C8.329 1.296 7.959.854 7.11.773z" fill="#fff"/></svg>