<svg width="16" height="16" fill="none" xmlns="http://www.w3.org/2000/svg"><g clip-path="url(#clip0_33_1016)" fill="#fff"><path d="M8.629 15.367H5.452V5.143h3.042v1.39c.578-.872 1.277-1.368 2.185-1.563a4.56 4.56 0 012.651.203c.984.376 1.54 1.15 1.765 2.135.143.616.233 1.255.248 1.894.03 1.992.015 3.984.023 5.969a.839.839 0 01-.023.173h-3.162v-.376c0-1.639.008-3.278-.007-4.924a5.24 5.24 0 00-.135-1.188c-.173-.766-.601-1.12-1.345-1.18-.863-.068-1.524.248-1.795.932a3.23 3.23 0 00-.24 1.09c-.03 1.737-.03 3.48-.038 5.217.008.136.008.286.008.452zM3.41 5.142v10.209H.276V5.142H3.41zM0 1.858A1.822 1.822 0 011.81 0a1.846 1.846 0 011.878 1.834c0 1.007-.827 1.857-1.825 1.864C.849 3.722.008 2.887 0 1.858z"/></g><defs><clipPath id="clip0_33_1016"><path fill="#fff" d="M0 0h15.366v15.366H0z"/></clipPath></defs></svg>