<svg width="15" height="13" fill="none" xmlns="http://www.w3.org/2000/svg"><path d="M.634 11.04c1.49.046 2.838-.337 4.093-1.347-.81-.083-1.485-.366-1.983-.98-.269-.33-.477-.726-.707-1.092l.066-.089h1.123C1.9 6.983 1.149 5.997 1.05 4.45c.4.119.778.23 1.156.349.016-.03.033-.053.05-.083-.565-.496-.96-1.098-1.108-1.865-.142-.768-.054-1.494.324-2.203 1.561 1.966 3.506 3.047 5.83 3.224.049-.55.032-1.08.153-1.565C7.998.147 10.513-.65 12.069.831c.17.16.313.237.532.142.482-.2.97-.378 1.446-.56-.005.336-.203.643-1.008 1.6.466-.137.931-.278 1.425-.42a4.637 4.637 0 01-1.03 1.234c-.253.207-.351.42-.351.773-.006 3.873-2.411 7.362-5.835 8.402-2.23.678-4.384.413-6.416-.821l-.198-.142z" fill="#fff"/></svg>