<svg width="16" height="16" fill="none" xmlns="http://www.w3.org/2000/svg"><g clip-path="url(#clip0_32_954)"><path d="M11.946 16c-.981-.113-1.85-.347-2.657-.74-4.18-2.031-7.246-5.115-8.922-9.485C.187 5.302.1 4.795.013 4.29a.954.954 0 01.094-.607C.84 2.371 1.769 1.22 2.95.28 3.5-.16 4.06-.1 4.447.486A43.06 43.06 0 016.41 3.723c.441.813.328 1.113-.373 1.732-.207.187-.435.353-.628.553-.067.073-.114.24-.08.327.794 2.085 2.243 3.53 4.334 4.323.086.033.26-.014.327-.08.274-.273.514-.58.781-.866.327-.353.721-.486 1.175-.273.621.293 1.242.6 1.83.939.568.326 1.109.7 1.643 1.072.534.373.861.953.247 1.666a12.416 12.416 0 01-3.326 2.737c-.133.087-.307.114-.394.147zM3.612 1.086a13.897 13.897 0 00-2.484 2.897.406.406 0 00-.033.307c.214.719.374 1.465.688 2.144 1.187 2.606 3.057 4.664 5.349 6.35 1.369 1.005 2.851 1.805 4.554 2.098.127.02.294 0 .4-.074a13.443 13.443 0 002.672-2.244c.047-.054.08-.114.173-.253-1.075-.607-2.116-1.193-3.152-1.786-.173-.1-.273-.046-.394.094-.3.353-.627.692-.928 1.046-.193.226-.42.266-.688.166-.52-.213-1.075-.373-1.562-.646-2.01-1.1-3.372-2.745-4.04-4.943-.08-.273-.054-.493.167-.686.347-.3.667-.62 1.021-.906.187-.153.2-.28.087-.48-.2-.359-.367-.732-.58-1.085-.401-.666-.822-1.319-1.25-1.998z" fill="#fff"/></g><defs><clipPath id="clip0_32_954"><path fill="#fff" d="M0 0h16v16H0z"/></clipPath></defs></svg>