<svg width="18" height="14" fill="none" xmlns="http://www.w3.org/2000/svg"><g clip-path="url(#clip0_32_956)"><path d="M8.993 14H16.2c.956 0 1.568-.445 1.758-1.263.035-.158.042-.33.042-.495V1.772C18 .712 17.402.066 16.376 0c-.085-.007-.162 0-.246 0H1.863c-.232 0-.47.015-.696.072-.689.18-1.16.81-1.16 1.564C0 5.21 0 8.783.007 12.357c0 .875.59 1.521 1.434 1.615.176.021.352.028.528.028h7.024zm6.96-12.895C13.663 3.51 11.328 5.95 9.07 8.317c-2.39-2.44-4.746-4.836-7.073-7.212h13.957zm.17 11.783H1.969c1.645-1.672 3.29-3.358 4.964-5.066.485.502 1.02 1.055 1.56 1.6.345.352.612.345.964-.007.302-.301.598-.603.9-.904.253-.259.506-.51.752-.754 1.674 1.723 3.32 3.409 5.014 5.131zm-4.079-5.855c1.597-1.672 3.235-3.38 4.88-5.11v10.09l-4.88-4.98zm-6.053-.108l-4.908 5.009V1.93C2.749 3.624 4.402 5.303 5.99 6.925z" fill="#fff"/></g><defs><clipPath id="clip0_32_956"><path fill="#fff" transform="matrix(-1 0 0 1 18 0)" d="M0 0h18v14H0z"/></clipPath></defs></svg>