<svg width="14" height="18" fill="none" xmlns="http://www.w3.org/2000/svg"><path d="M2.104 11.611l.002.002c.768.945 1.54 1.887 2.313 2.83h0c.773.943 1.546 1.886 2.315 2.832.089.108.16.167.208.198.024.015.04.021.05.024a.049.049 0 00.013.003l.012-.002a.203.203 0 00.046-.023.877.877 0 00.202-.192h0c.606-.737 1.21-1.476 1.816-2.216a946.96 946.96 0 012.822-3.438c2.712-3.318 1.86-8.3-1.71-10.277h-.002C5.77-1.112.485 2.097.5 6.73c.017 2.128.553 3.601 1.604 4.881zm1.647-4.683h0c.01-1.773 1.457-3.23 3.217-3.25v0h.003a3.265 3.265 0 013.268 3.25 3.252 3.252 0 01-3.24 3.274 3.265 3.265 0 01-3.248-3.274z" stroke="#fff"/></svg>