<svg width="10" height="10" fill="none" xmlns="http://www.w3.org/2000/svg"><g clip-path="url(#clip0_32_764)" fill="#fff"><path d="M5.616 10H3.548V3.346h1.98v.905c.376-.567.83-.89 1.422-1.017a2.968 2.968 0 011.725.132c.64.245 1.002.748 1.149 1.39.093.4.152.816.161 1.232.02 1.297.01 2.593.015 3.885a.546.546 0 01-.015.112H7.928v-.244c0-1.067.005-2.133-.005-3.205 0-.26-.03-.523-.088-.773-.113-.499-.391-.729-.875-.768-.562-.044-.992.162-1.168.607-.088.225-.152.47-.157.71-.02 1.13-.02 2.264-.024 3.394.005.089.005.186.005.294zM2.219 3.346V9.99H.18V3.346h2.038zM0 1.208A1.186 1.186 0 011.178 0 1.2 1.2 0 012.4 1.194c0 .655-.538 1.208-1.188 1.213A1.2 1.2 0 010 1.208z"/></g><defs><clipPath id="clip0_32_764"><path fill="#fff" d="M0 0h10v10H0z"/></clipPath></defs></svg>