<svg width="19" height="16" fill="none" xmlns="http://www.w3.org/2000/svg"><path d="M7.144 14.935c.081-1.14.215-2.288.223-3.436.007-.757.327-1.215.862-1.687 2.364-2.093 4.69-4.231 7.032-6.346.156-.143.305-.3.483-.473-.35-.233-.58-.06-.803.075-1.524.96-3.04 1.92-4.557 2.88C8.69 7.021 6.987 8.086 5.293 9.166c-.201.128-.38.173-.617.09-1.316-.427-2.64-.84-3.955-1.26-.32-.105-.699-.195-.714-.6-.022-.397.335-.57.64-.69 1.62-.645 3.248-1.275 4.869-1.905C9.53 3.248 13.544 1.703 17.55.15c.104-.037.209-.082.313-.112.661-.18 1.174.172 1.137.862-.037.608-.178 1.208-.305 1.8-.855 4.081-1.717 8.154-2.587 12.227a2.995 2.995 0 01-.148.503c-.216.502-.603.69-1.115.502-.23-.082-.439-.225-.64-.367-1.353-.99-2.698-1.988-4.08-3.008l-.803.765c-.476.458-.937.93-1.428 1.365-.186.165-.446.255-.676.375-.022-.045-.052-.082-.074-.127z" fill="#fff"/></svg>