<svg width="10" height="9" fill="none" xmlns="http://www.w3.org/2000/svg"><path d="M0 8.136c.97.031 1.847-.219 2.664-.876-.528-.054-.967-.238-1.291-.638-.175-.215-.31-.472-.46-.71l.043-.058h.73C.825 5.497.337 4.855.272 3.848c.26.077.506.15.752.227.011-.02.022-.035.032-.054C.688 3.7.431 3.307.335 2.807a2.12 2.12 0 01.21-1.433c1.017 1.28 2.283 1.983 3.795 2.098.032-.357.02-.703.1-1.018.352-1.407 1.99-1.925 3.002-.96.11.103.203.153.346.091.313-.13.63-.246.941-.365-.004.22-.132.42-.656 1.042.303-.089.606-.181.927-.273a3.017 3.017 0 01-.67.803c-.164.134-.229.273-.229.503-.003 2.52-1.569 4.791-3.797 5.468-1.451.441-2.853.268-4.176-.535L0 8.136z" fill="#fff"/></svg>