<svg width="13" height="7" fill="none" xmlns="http://www.w3.org/2000/svg"><path d="M4.297.503A.69.69 0 014.81.109 6.824 6.824 0 017.104.085c.371.058.508.23.508.605 0 .552-.02 1.103-.025 1.655 0 .23-.01.465.035.69a.54.54 0 00.25.351c.07.039.263-.057.36-.139.528-.465.858-1.06 1.193-1.65A8.65 8.65 0 009.861.68c.102-.235.244-.345.533-.345.686.01 1.371-.01 2.057-.02.487-.009.68.207.457.605-.285.523-.635 1.012-.985 1.502-.28.388-.604.753-.884 1.137-.259.35-.228.537.082.849.477.475.974.93 1.436 1.42.168.178.295.408.386.633.107.264-.04.475-.34.49-.716.033-1.437.062-2.158.043-.37-.01-.685-.22-.94-.475-.268-.264-.517-.552-.791-.81-.173-.169-.355-.4-.64-.322-.284.081-.386.34-.431.6-.03.162-.036.33-.051.498-.026.346-.163.48-.523.48-.63-.005-1.27.062-1.884-.149-.883-.288-1.65-.767-2.259-1.453C1.713 4 .824 2.45.068.829-.085.503.017.35.408.34.992.326 1.576.322 2.159.317c.3 0 .493.134.63.398.36.7.741 1.396 1.127 2.087.102.177.259.336.421.475.325.283.615.206.676-.202.07-.513.07-1.031.091-1.55.005-.076-.02-.158-.03-.24-.041-.44-.264-.728-.777-.781z" fill="#fff"/></svg>